<!-- <svg xmlns="http://www.w3.org/2000/svg" width="28" height="28" fill="none">
    <circle cx="50%" cy="50%" r="14" fill="#fff" />
    <path 
        transform="translate(2.75 4.75)"
        d="M6.24534 4.11554C6.2147 4.20423 6.2223 4.30188 6.2663 4.38461C6.31031 4.46734 6.38664 4.52753 6.47665 4.55045L9.05411 5.35336H9.15324C9.30313 5.3603 9.43883 5.26414 9.48369 5.11917C9.51433 5.03048 9.50673 4.93283 9.46273 4.8501C9.41872 4.76737 9.34239 4.70718 9.25238 4.68427L6.67492 3.88135C6.64187 3.88135 6.60883 3.8479 6.57579 3.8479C6.41843 3.85091 6.28279 3.96077 6.24534 4.11554Z" 
        fill="#DB1E36"/>
    <path 
        transform="translate(2.75 4.75)"
        d="M3.66795 5.15265C3.6373 5.24134 3.64491 5.33899 3.68891 5.42172C3.73291 5.50445 3.80925 5.56464 3.89926 5.58756L9.31853 7.29374H9.41767C9.56471 7.2913 9.69551 7.19859 9.74811 7.05956C9.77876 6.97087 9.77115 6.87321 9.72715 6.79048C9.68315 6.70775 9.60681 6.64757 9.5168 6.62465L4.09753 4.91846C4.06448 4.91846 4.03144 4.88501 3.99839 4.88501C3.84682 4.90306 3.71862 5.0069 3.66795 5.15265Z" 
        fill="#DB1E36"/>
    <path 
        transform="translate(2.75 4.75)"
        d="M3.66795 6.72489C3.6373 6.81358 3.64491 6.91124 3.68891 6.99397C3.73291 7.0767 3.80925 7.13688 3.89926 7.1598L9.31853 8.86599H9.41767C9.56471 8.86354 9.69551 8.77084 9.74811 8.6318C9.77876 8.54311 9.77115 8.44546 9.72715 8.36273C9.68315 8.28 9.60681 8.21981 9.5168 8.19689L4.09753 6.49071H3.99839C3.8485 6.48376 3.71281 6.57993 3.66795 6.72489Z" 
        fill="#DB1E36"/>
    <path 
        transform="translate(2.75 4.75)"
        d="M3.66795 8.2974C3.6373 8.38609 3.64491 8.48375 3.68891 8.56648C3.73291 8.64921 3.80925 8.70939 3.89926 8.73231L9.31853 10.4385H9.41767C9.56471 10.436 9.69551 10.3433 9.74811 10.2043C9.77876 10.1156 9.77115 10.018 9.72715 9.93524C9.68315 9.8525 9.60681 9.79232 9.5168 9.7694L4.09753 8.06322H3.99839C3.8485 8.05627 3.71281 8.15244 3.66795 8.2974Z" 
        fill="#DB1E36"/>
    <path 
        transform="translate(2.75 4.75)"
        d="M3.66795 9.86969C3.6373 9.95838 3.64491 10.056 3.68891 10.1388C3.73291 10.2215 3.80925 10.2817 3.89926 10.3046L9.31853 12.0108H9.41767C9.56471 12.0083 9.69551 11.9156 9.74811 11.7766C9.77876 11.6879 9.77115 11.5903 9.72715 11.5075C9.68315 11.4248 9.60681 11.3646 9.5168 11.3417L4.09753 9.63551C4.06448 9.63551 4.03144 9.60205 3.99839 9.60205C3.84682 9.6201 3.71862 9.72394 3.66795 9.86969Z" 
        fill="#DB1E36"/>
    <path 
        transform="translate(2.75 4.75)"
        d="M3.66795 11.9773C3.6373 12.066 3.64491 12.1636 3.68891 12.2464C3.73291 12.3291 3.80925 12.3893 3.89926 12.4122L9.31853 14.1184C9.35158 14.1184 9.38462 14.1518 9.41767 14.1518C9.56471 14.1494 9.69551 14.0567 9.74811 13.9177C9.77876 13.829 9.77115 13.7313 9.72715 13.6486C9.68315 13.5659 9.60681 13.5057 9.5168 13.4827L4.09753 11.7766C4.06448 11.7766 4.03144 11.7431 3.99839 11.7431C3.92344 11.7254 3.8446 11.7409 3.78156 11.7856C3.71851 11.8302 3.67721 11.8999 3.66795 11.9773Z" 
        fill="#DB1E36"/>
    <path 
        transform="translate(2.75 4.75)"
        d="M11.7638 16.1591V13.4827H21.6441V16.1591C21.6404 16.9151 21.036 17.5271 20.2892 17.5307H13.0856C12.3604 17.4895 11.7866 16.894 11.7638 16.1591ZM11.7638 3.51325H21.6441V12.7802H11.7638V3.51325ZM0.726976 16.5271V2.27543C0.725127 2.21277 0.748903 2.15211 0.792689 2.10778C0.836476 2.06345 0.896391 2.03938 0.958287 2.04115H1.7844V13.9845C1.78249 14.4553 2.09492 14.8678 2.54442 14.9882L8.75676 16.7278H0.991331C0.793065 16.7613 0.726976 16.6609 0.726976 16.5271ZM11.7638 2.3758C11.7674 1.61979 12.3719 1.00782 13.1186 1.00416H20.3223C21.069 1.00782 21.6735 1.61979 21.6771 2.3758V2.81071H11.7968V2.3758H11.7638ZM2.70964 14.3525C2.55868 14.3116 2.45155 14.1761 2.44528 14.018V1.00416C2.44528 0.970706 2.47833 0.937251 2.47833 0.903797C2.49615 0.885629 2.51937 0.873877 2.54442 0.870342H2.57746C4.36186 1.43907 9.682 3.01144 10.9046 3.37944V16.6274L2.70964 14.3525ZM2.08179 0.335069C1.87808 0.496617 1.75678 0.742235 1.75135 1.00416V1.37216H0.925242C0.418667 1.38281 0.0105205 1.79602 0 2.30889V16.5271C0 17.0444 0.414245 17.4638 0.925242 17.4638H11.2351C11.3063 17.4622 11.3754 17.4389 11.4333 17.3969C11.4333 17.3784 11.4481 17.3635 11.4664 17.3635C11.8529 17.8942 12.4673 18.2052 13.1186 18.1999H20.3223C21.4515 18.1943 22.3656 17.2689 22.371 16.1256V2.3758C22.3656 1.23254 21.4515 0.307106 20.3223 0.301614H13.1186C11.9894 0.307106 11.0753 1.23254 11.0699 2.3758V2.7438C9.84722 2.3758 4.56012 0.803433 2.77573 0.234705C2.70179 0.207263 2.62298 0.195865 2.54442 0.20125C2.37996 0.193959 2.21762 0.240919 2.08179 0.335069Z" 
        fill="#DB1E36"/>
    <path 
        transform="translate(2.75 4.75)"
        d="M16.2579 15.0218C16.2579 14.7446 16.4798 14.5199 16.7536 14.5199C17.0273 14.5199 17.2492 14.7446 17.2492 15.0218C17.2492 15.2989 17.0273 15.5236 16.7536 15.5236C16.6199 15.5314 16.4892 15.4811 16.3945 15.3852C16.2999 15.2894 16.2501 15.1571 16.2579 15.0218ZM15.564 15.0218C15.564 15.6869 16.0966 16.2261 16.7536 16.2261C17.4106 16.2261 17.9432 15.6869 17.9432 15.0218C17.9432 14.3566 17.4106 13.8174 16.7536 13.8174C16.4378 13.8165 16.1347 13.9431 15.9114 14.1692C15.6881 14.3952 15.5631 14.7021 15.564 15.0218Z" 
        fill="#DB1E36"/>
</svg>  -->

<svg xmlns="http://www.w3.org/2000/svg" width="28" height="28" viewBox="0 0 32 32" fill="none">
    <circle cx="50%" cy="50%" r="16" fill="#fff" />
    <path 
        transform="translate(4.5 6.75)"
        d="M6.24534 4.11554C6.2147 4.20423 6.2223 4.30188 6.2663 4.38461C6.31031 4.46734 6.38664 4.52753 6.47665 4.55045L9.05411 5.35336H9.15324C9.30313 5.3603 9.43883 5.26414 9.48369 5.11917C9.51433 5.03048 9.50673 4.93283 9.46273 4.8501C9.41872 4.76737 9.34239 4.70718 9.25238 4.68427L6.67492 3.88135C6.64187 3.88135 6.60883 3.8479 6.57579 3.8479C6.41843 3.85091 6.28279 3.96077 6.24534 4.11554Z" 
        fill="#DB1E36"/>
    <path 
        transform="translate(4.5 6.75)"
        d="M3.66795 5.15265C3.6373 5.24134 3.64491 5.33899 3.68891 5.42172C3.73291 5.50445 3.80925 5.56464 3.89926 5.58756L9.31853 7.29374H9.41767C9.56471 7.2913 9.69551 7.19859 9.74811 7.05956C9.77876 6.97087 9.77115 6.87321 9.72715 6.79048C9.68315 6.70775 9.60681 6.64757 9.5168 6.62465L4.09753 4.91846C4.06448 4.91846 4.03144 4.88501 3.99839 4.88501C3.84682 4.90306 3.71862 5.0069 3.66795 5.15265Z" 
        fill="#DB1E36"/>
    <path 
        transform="translate(4.5 6.75)"
        d="M3.66795 6.72489C3.6373 6.81358 3.64491 6.91124 3.68891 6.99397C3.73291 7.0767 3.80925 7.13688 3.89926 7.1598L9.31853 8.86599H9.41767C9.56471 8.86354 9.69551 8.77084 9.74811 8.6318C9.77876 8.54311 9.77115 8.44546 9.72715 8.36273C9.68315 8.28 9.60681 8.21981 9.5168 8.19689L4.09753 6.49071H3.99839C3.8485 6.48376 3.71281 6.57993 3.66795 6.72489Z" 
        fill="#DB1E36"/>
    <path 
        transform="translate(4.5 6.75)"
        d="M3.66795 8.2974C3.6373 8.38609 3.64491 8.48375 3.68891 8.56648C3.73291 8.64921 3.80925 8.70939 3.89926 8.73231L9.31853 10.4385H9.41767C9.56471 10.436 9.69551 10.3433 9.74811 10.2043C9.77876 10.1156 9.77115 10.018 9.72715 9.93524C9.68315 9.8525 9.60681 9.79232 9.5168 9.7694L4.09753 8.06322H3.99839C3.8485 8.05627 3.71281 8.15244 3.66795 8.2974Z" 
        fill="#DB1E36"/>
    <path 
        transform="translate(4.5 6.75)"
        d="M3.66795 9.86969C3.6373 9.95838 3.64491 10.056 3.68891 10.1388C3.73291 10.2215 3.80925 10.2817 3.89926 10.3046L9.31853 12.0108H9.41767C9.56471 12.0083 9.69551 11.9156 9.74811 11.7766C9.77876 11.6879 9.77115 11.5903 9.72715 11.5075C9.68315 11.4248 9.60681 11.3646 9.5168 11.3417L4.09753 9.63551C4.06448 9.63551 4.03144 9.60205 3.99839 9.60205C3.84682 9.6201 3.71862 9.72394 3.66795 9.86969Z" 
        fill="#DB1E36"/>
    <path 
        transform="translate(4.5 6.75)"
        d="M3.66795 11.9773C3.6373 12.066 3.64491 12.1636 3.68891 12.2464C3.73291 12.3291 3.80925 12.3893 3.89926 12.4122L9.31853 14.1184C9.35158 14.1184 9.38462 14.1518 9.41767 14.1518C9.56471 14.1494 9.69551 14.0567 9.74811 13.9177C9.77876 13.829 9.77115 13.7313 9.72715 13.6486C9.68315 13.5659 9.60681 13.5057 9.5168 13.4827L4.09753 11.7766C4.06448 11.7766 4.03144 11.7431 3.99839 11.7431C3.92344 11.7254 3.8446 11.7409 3.78156 11.7856C3.71851 11.8302 3.67721 11.8999 3.66795 11.9773Z" 
        fill="#DB1E36"/>
    <path 
        transform="translate(4.5 6.75)"
        d="M11.7638 16.1591V13.4827H21.6441V16.1591C21.6404 16.9151 21.036 17.5271 20.2892 17.5307H13.0856C12.3604 17.4895 11.7866 16.894 11.7638 16.1591ZM11.7638 3.51325H21.6441V12.7802H11.7638V3.51325ZM0.726976 16.5271V2.27543C0.725127 2.21277 0.748903 2.15211 0.792689 2.10778C0.836476 2.06345 0.896391 2.03938 0.958287 2.04115H1.7844V13.9845C1.78249 14.4553 2.09492 14.8678 2.54442 14.9882L8.75676 16.7278H0.991331C0.793065 16.7613 0.726976 16.6609 0.726976 16.5271ZM11.7638 2.3758C11.7674 1.61979 12.3719 1.00782 13.1186 1.00416H20.3223C21.069 1.00782 21.6735 1.61979 21.6771 2.3758V2.81071H11.7968V2.3758H11.7638ZM2.70964 14.3525C2.55868 14.3116 2.45155 14.1761 2.44528 14.018V1.00416C2.44528 0.970706 2.47833 0.937251 2.47833 0.903797C2.49615 0.885629 2.51937 0.873877 2.54442 0.870342H2.57746C4.36186 1.43907 9.682 3.01144 10.9046 3.37944V16.6274L2.70964 14.3525ZM2.08179 0.335069C1.87808 0.496617 1.75678 0.742235 1.75135 1.00416V1.37216H0.925242C0.418667 1.38281 0.0105205 1.79602 0 2.30889V16.5271C0 17.0444 0.414245 17.4638 0.925242 17.4638H11.2351C11.3063 17.4622 11.3754 17.4389 11.4333 17.3969C11.4333 17.3784 11.4481 17.3635 11.4664 17.3635C11.8529 17.8942 12.4673 18.2052 13.1186 18.1999H20.3223C21.4515 18.1943 22.3656 17.2689 22.371 16.1256V2.3758C22.3656 1.23254 21.4515 0.307106 20.3223 0.301614H13.1186C11.9894 0.307106 11.0753 1.23254 11.0699 2.3758V2.7438C9.84722 2.3758 4.56012 0.803433 2.77573 0.234705C2.70179 0.207263 2.62298 0.195865 2.54442 0.20125C2.37996 0.193959 2.21762 0.240919 2.08179 0.335069Z" 
        fill="#DB1E36"/>
    <path 
        transform="translate(4.5 6.75)"
        d="M16.2579 15.0218C16.2579 14.7446 16.4798 14.5199 16.7536 14.5199C17.0273 14.5199 17.2492 14.7446 17.2492 15.0218C17.2492 15.2989 17.0273 15.5236 16.7536 15.5236C16.6199 15.5314 16.4892 15.4811 16.3945 15.3852C16.2999 15.2894 16.2501 15.1571 16.2579 15.0218ZM15.564 15.0218C15.564 15.6869 16.0966 16.2261 16.7536 16.2261C17.4106 16.2261 17.9432 15.6869 17.9432 15.0218C17.9432 14.3566 17.4106 13.8174 16.7536 13.8174C16.4378 13.8165 16.1347 13.9431 15.9114 14.1692C15.6881 14.3952 15.5631 14.7021 15.564 15.0218Z" 
        fill="#DB1E36"/>
</svg>


