<svg xmlns="http://www.w3.org/2000/svg"
     width="28" height="28"
     fill="none">
  <!-- white circular background -->
  <rect width="28" height="28" rx="14" fill="#fff"/>

  <!-- inner viewport 20×20, centered with 4px margin -->
  <svg x="4" y="4" width="20" height="20"
       viewBox="110 187.59 233.62 127.20"
       preserveAspectRatio="xMidYMid meet">
    <g transform="translate(115 192)">
      <!-- first “S” -->
      <path
        d="M0,77.059H3.85s.185,33.014,33.75,33.014c13.019,0,22.924-8.436,22.924-20.174,0-8.436-8.436-15.591-21.092-22.194L21.825,58.718C11.187,53.217,1.469,42.394,1.469,28.457c0-15.224,12.653-27.328,30.443-27.328,10.823,0,16.875,3.486,22.379,7.521A15.657,15.657,0,0,0,59.607.211h3.668v40.35h-3.85C58.14,25.889,52.639,8.468,31.363,8.468c-10.272,0-17.79,7.149-17.79,16.321,0,9.536,6.419,14.488,22.376,22.742l17.423,8.987C67.494,63.67,72.629,74.309,72.629,84.4c0,19.989-16.139,33.011-35.029,33.011-13.94,0-22.742-7.336-28.613-8.621a15.509,15.509,0,0,0-5.319,8.621H0Z"
        transform="translate(0 0.379)"
        fill="#1e2253"
      />
      <!-- “P” -->
      <path
        d="M108.55,33.307A38.827,38.827,0,0,1,70.069,65.8H58.852L54.6,89.97C51.308,109.112,52.662,112.6,64.652,112.6l-.772,4.06H23.269l.775-4.06c12.18,0,14.7-3.484,18.176-22.625L53.437,27.121C56.918,7.977,55.178,4.686,42.992,4.686L43.767.629h37.9c20.112,0,29.975,14.7,26.881,32.678m-13.344,0C97.722,19.384,90.565,7.784,78,7.784H69.1L60.206,58.837H69.1c12.569,0,23.59-11.41,26.106-25.529"
        transform="translate(41.838 1.131)"
        fill="#6f90b8"
      />
      <!-- second “S” -->
      <path
        d="M55.042,77.059h3.85s.185,33.014,33.75,33.014c13.019,0,22.924-8.436,22.924-20.174,0-8.436-8.436-15.591-21.092-22.194L76.867,58.718c-10.638-5.5-20.356-16.324-20.356-30.261,0-15.224,12.653-27.328,30.443-27.328,10.823,0,16.875,3.486,22.379,7.521A15.657,15.657,0,0,0,114.649.211h3.668v40.35h-3.85c-1.284-14.673-6.785-32.093-28.062-32.093-10.272,0-17.79,7.149-17.79,16.321,0,9.536,6.419,14.488,22.376,22.742l17.423,8.987c14.122,7.152,19.256,17.79,19.256,27.88,0,19.989-16.139,33.011-35.029,33.011-13.94,0-22.742-7.336-28.613-8.621a15.509,15.509,0,0,0-5.319,8.621H55.042Z"
        transform="translate(98.967 0.379)"
        fill="#1e2253"
      />
    </g>
  </svg>
</svg>

